#!OML:ASF H:\Dans Jumps\Project 1\Capture day 1\Session 1\subject.ASF
:FULLY-SPECIFIED
:DEGREES
249
root 0.365332 20.0683 -11.178 7.81665 0.467075 -0.359734
lowerback 9.98931 0.469214 -1.73359
upperback 6.13145 0.490467 2.0815
thorax 0.743237 0.163697 3.08587
lowerneck -6.38362 -0.233911 -2.3704
upperneck 27.1494 0.0705793 0.0115042
head 9.60119 -0.19312 0.421195
rclavicle -4.96962e-015 -1.27222e-014
rhumerus 6.89946 7.15192 -81.7619
rradius 36.5543
rwrist 21.486
rhand -22.5988 -20.8167
rfingers 7.12502
rthumb 3.83057 -50.7621
lclavicle -4.96962e-015 -1.27222e-014
lhumerus 9.79991 -14.5046 82.9455
lradius 47.5876
lwrist 30.9921
lhand -28.4693 -15.0316
lfingers 7.12502
lthumb -1.83914 14.9402
rfemur -30.1426 -5.22432 17.9968
rtibia 44.6492
rfoot 16.5857 -7.3709
rtoes 21.9016
lfemur -27.9201 3.58228 -17.8666
ltibia 38.498
lfoot 20.4252 4.88987
ltoes 7.13736
250
root 0.366136 20.1278 -11.0993 7.70257 0.398221 -0.381787
lowerback 9.95136 0.452452 -1.7335
upperback 6.13613 0.468253 2.03707
thorax 0.770467 0.152875 3.04177
lowerneck -6.42229 -0.20403 -2.2591
upperneck 27.267 0.101258 -0.0125767
head 9.65019 -0.171999 0.396827
rclavicle 1.39149e-015 -8.34896e-015
rhumerus 7.06522 7.40987 -81.901
rradius 36.4876
rwrist 21.5939
rhand -22.7057 -20.7799
rfingers 7.12502
rthumb 3.72732 -50.727
lclavicle 1.39149e-015 -8.34896e-015
lhumerus 9.91544 -14.6242 82.8561
lradius 48.0664
lwrist 30.9425
lhand -28.4531 -14.885
lfingers 7.12502
lthumb -1.82348 15.087
rfemur -30.3368 -5.12792 18.0716
rtibia 44.1082
rfoot 16.1193 -7.03658
rtoes 21.2371
lfemur -27.9108 3.53459 -17.8425
ltibia 37.6477
lfoot 19.898 4.88323
ltoes 6.92452
251
root 0.366702 20.1756 -11.018 7.60186 0.343409 -0.398652
lowerback 9.87803 0.439359 -1.7313
upperback 6.14411 0.451433 1.99499
thorax 0.820024 0.14447 2.99853
lowerneck -6.46762 -0.17822 -2.18434
upperneck 27.3852 0.121744 0.00505414
head 9.70095 -0.154694 0.392281
rclavicle 3.97569e-015 7.55382e-015
rhumerus 7.18021 7.59783 -82.0416
rradius 36.4063
rwrist 21.7167
rhand -22.7781 -20.7554
rfingers 7.12502
rthumb 3.65736 -50.7038
lclavicle 3.97569e-015 7.55382e-015
lhumerus 10.0101 -14.7971 82.768
lradius 48.5068
lwrist 30.7579
lhand -28.5262 -14.7483
lfingers 7.12502
lthumb -1.89412 15.2231
rfemur -30.4901 -5.04901 18.1429
rtibia 43.4337
rfoot 15.6231 -6.69155
rtoes 20.4682
lfemur -27.8777 3.52395 -17.8406
ltibia 36.7257
lfoot 19.332 4.82822
ltoes 6.66138
252
root 0.367523 20.2116 -10.9336 7.5069 0.332961 -0.410106
lowerback 9.76703 0.419465 -1.71862
upperback 6.15577 0.426928 1.95848
thorax 0.894467 0.132109 2.95597
lowerneck -6.52447 -0.157428 -2.16947
upperneck 27.5262 0.12889 0.0872296
head 9.76235 -0.142733 0.41936
rclavicle -3.97569e-015 -7.15625e-015
rhumerus 7.25232 7.716 -82.1789
rradius 36.2979
rwrist 21.8598
rhand -22.809 -20.7256
rfingers 7.12502
rthumb 3.62758 -50.6745
lclavicle -3.97569e-015 -7.15625e-015
lhumerus 10.0918 -15.0225 82.6843
lradius 48.9013
lwrist 30.5412
lhand -28.653 -14.6533
lfingers 7.12502
lthumb -2.01659 15.3169
rfemur -30.5839 -5.01145 18.206
rtibia 42.6339
rfoot 15.1405 -6.3222
rtoes 19.6593
lfemur -27.8147 3.52686 -17.8587
ltibia 35.7401
lfoot 18.7629 4.69495
ltoes 6.35705
253
root 0.368192 20.2355 -10.8458 7.42301 0.337268 -0.430256
lowerback 9.61107 0.402596 -1.69659
upperback 6.16608 0.407626 1.93236
thorax 0.991693 0.122196 2.91853
lowerneck -6.59037 -0.139346 -2.19093
upperneck 27.6948 0.129249 0.20554
head 9.83573 -0.133744 0.464885
rclavicle -4.57205e-015 -2.3059e-014
rhumerus 7.2813 7.78004 -82.307
rradius 36.1588
rwrist 22.0122
rhand -22.7924 -20.6947
rfingers 7.12502
rthumb 3.64358 -50.6433
lclavicle -4.57205e-015 -2.3059e-014
lhumerus 10.1611 -15.295 82.6065
lradius 49.2495
lwrist 30.3949
lhand -28.7997 -14.5948
lfingers 7.12502
lthumb -2.15828 15.374
rfemur -30.6293 -4.98248 18.2728
rtibia 41.7253
rfoot 14.6877 -5.90964
rtoes 18.7846
lfemur -27.7274 3.569 -17.8806
ltibia 34.7072
lfoot 18.2004 4.48321
ltoes 6.019
254
root 0.368893 20.2473 -10.755 7.34502 0.363242 -0.459228
lowerback 9.41609 0.386638 -1.66134
upperback 6.16817 0.390927 1.91469
thorax 1.10151 0.113799 2.88221
lowerneck -6.65047 -0.126208 -2.22103
upperneck 27.8934 0.12229 0.330568
head 9.91928 -0.128282 0.513827
rclavicle -6.16232e-015 -1.07344e-014
rhumerus 7.2532 7.7888 -82.4289
rradius 35.9989
rwrist 22.1774
rhand -22.7179 -20.6826
rfingers 7.12502
rthumb 3.71555 -50.63
lclavicle -6.16232e-015 -1.07344e-014
lhumerus 10.2206 -15.6196 82.5325
lradius 49.5419
lwrist 30.3937
lhand -28.9354 -14.5792
lfingers 7.12502
lthumb -2.28929 15.3883
rfemur -30.6249 -4.96871 18.3412
rtibia 40.7314
rfoot 14.2641 -5.44071
rtoes 17.8366
lfemur -27.6175 3.64249 -17.9047
ltibia 33.6454
lfoot 17.675 4.19839
ltoes 5.67852
255
root 0.369582 20.2466 -10.661 7.26652 0.401928 -0.499272
lowerback 9.19094 0.371618 -1.61558
upperback 6.16049 0.376429 1.90557
thorax 1.21758 0.106739 2.84864
lowerneck -6.69842 -0.120071 -2.25273
upperneck 28.1237 0.105756 0.454052
head 10.0126 -0.127577 0.561873
rclavicle -2.5842e-015 -2.14687e-014
rhumerus 7.17203 7.75842 -82.5467
rradius 35.8129
rwrist 22.3507
rhand -22.6308 -20.6437
rfingers 7.12502
rthumb 3.79959 -50.5896
lclavicle -2.5842e-015 -2.14687e-014
lhumerus 10.2705 -15.9777 82.4632
lradius 49.7644
lwrist 30.5487
lhand -29.02 -14.6503
lfingers 7.12502
lthumb -2.37103 15.3162
rfemur -30.5714 -4.95813 18.4115
rtibia 39.681
rfoot 13.8828 -4.93181
rtoes 16.8773
lfemur -27.4843 3.74818 -17.9268
ltibia 32.5778
lfoot 17.2132 3.86396
ltoes 5.3659
